<?xml version="1.0" encoding="utf-8"?>
<!-- Generator: Adobe Illustrator 26.5.0, SVG Export Plug-In . SVG Version: 6.00 Build 0)  -->
<svg version="1.1" id="Layer_1" xmlns="http://www.w3.org/2000/svg" xmlns:xlink="http://www.w3.org/1999/xlink" x="0px" y="0px"
	 viewBox="0 0 300 150" style="enable-background:new 0 0 300 150;" xml:space="preserve">
<style type="text/css">
	.st0{fill:#2E3192;stroke:#000000;stroke-miterlimit:10;}
</style>
<g>
	<path class="st0" d="M202.5,114.2c-2.2,8-3.4,16.2-3.6,24.3C190,133,183,126,178.1,118.2c-10.6-17-11.5-38.1-0.6-56.3
		c0.3-0.4,0.5-0.9,0.8-1.3l0.1-0.2c0.9-1.4,1.9-2.8,2.9-4.1c0,0,0,0,0,0c0,0,0-0.1,0.1-0.1c13.5-17.5,36.1-27.1,59.1-26.5
		c10.3,0.2,20.6,2.5,30.3,6.9c-8.2,3.9-16,8.5-23.3,13.8v0c-17.6-3-36.2,3.3-46.8,16.6c-0.1,0.1-0.1,0.2-0.2,0.2
		c-0.6,0.8-1.2,1.6-1.7,2.4c-0.1,0.2-0.2,0.3-0.3,0.5l-0.1,0.1c-0.4,0.6-0.7,1.1-1.1,1.7l0.1,0C189.5,85.9,191.9,102.3,202.5,114.2z
		"/>
	<path class="st0" d="M186.9,32.6c0,0.9-0.1,1.8-0.2,2.6c-1.4,9.3-10.2,16.6-21.1,17.3c-0.6,0-1.1,0.1-1.7,0.1
		c-11.7,0-21.4-7.6-22.8-17.4c-0.1-0.6-0.2-1.3-0.2-1.9c0,0,0,0,0,0c0-0.8,0-1.6,0.1-2.4c0,0,0,0,0-0.1c1-10.2,10.9-18.2,22.9-18.2
		c1,0,1.9,0.1,2.9,0.2C178.1,14,186.9,22.4,186.9,32.6z"/>
	<g>
		<path class="st0" d="M130.9,38.4c-0.5-0.3-1-0.5-1.5-0.8c-0.5-0.3-1-0.5-1.6-0.8c-18.5-8.7-39.6-9.4-57.9-3.2
			c5.1,5.6,10.2,11.3,15.5,16.8c10.7-1.9,22.2-0.6,32.4,4.5c17.1,8.6,25.5,25.2,22.4,41.2c6.3,6.2,11.9,12.8,16.5,19.9
			c4.8-8.5,7.1-17.5,7.1-26.5C163.9,69.3,152,49.6,130.9,38.4z"/>
	</g>
</g>
</svg>
