<?xml version="1.0" encoding="utf-8"?>
<!-- Generator: Adobe Illustrator 26.5.0, SVG Export Plug-In . SVG Version: 6.00 Build 0)  -->
<svg version="1.1" id="Layer_1" xmlns="http://www.w3.org/2000/svg" xmlns:xlink="http://www.w3.org/1999/xlink" x="0px" y="0px"
	 viewBox="0 0 160 160" style="enable-background:new 0 0 160 160;" xml:space="preserve">
<style type="text/css">
	.st0{fill:#2E3192;stroke:#000000;stroke-miterlimit:10;}
</style>
<g>
	<path class="st0" d="M77.6,152.8l-37.2,2C39.3,111,25.7,71.9,4.8,44.3l12.6-19.4L30.1,5.5C58,42.3,76.1,94.3,77.6,152.8z"/>
	<path class="st0" d="M128.8,4.8l26,37.9c-22.1,30.6-33.3,71.1-33.7,111.7l-18.6-0.3l-18.6-0.3C84.4,99.6,99.4,45.6,128.8,4.8z"/>
	<path class="st0" d="M81.1,71.2c-10.3,0.7-19-10.6-19.5-25.2c-0.5-14.6,7.4-27,17.7-27.7c0.5,0,1,0,1.5,0
		c9.6,0.5,17.5,11.3,17.9,25.2c0.5,13.9-6.7,25.8-16.2,27.5C82.1,71.1,81.6,71.2,81.1,71.2z"/>
</g>
</svg>
